<svg width="62" height="62" viewBox="0 0 62 62" fill="none" xmlns="http://www.w3.org/2000/svg">
<path fill-rule="evenodd" clip-rule="evenodd" d="M62 31C62 48.1208 48.1208 62 31 62C13.8792 62 0 48.1208 0 31C0 13.8792 13.8792 0 31 0C48.1208 0 62 13.8792 62 31ZM15.8741 15.8736C16.2646 15.4831 16.8977 15.4831 17.2883 15.8736L30.5813 29.1666L43.8742 15.8736C44.2647 15.4831 44.8979 15.4831 45.2884 15.8736C45.679 16.2642 45.679 16.8973 45.2884 17.2879L31.9955 30.5808L45.2884 43.8738C45.679 44.2643 45.679 44.8975 45.2884 45.288C44.8979 45.6785 44.2647 45.6785 43.8742 45.288L30.5813 31.995L17.2883 45.288C16.8977 45.6785 16.2646 45.6785 15.8741 45.288C15.4835 44.8975 15.4835 44.2643 15.8741 43.8738L29.167 30.5808L15.8741 17.2878C15.4835 16.8973 15.4835 16.2641 15.8741 15.8736Z" fill="white"/>
</svg>
