<svg width="799" height="91" viewBox="0 0 799 91" fill="none" xmlns="http://www.w3.org/2000/svg">
<path d="M9.47852 81.8477V8.45898H4.27832C2.81348 8.45898 1.76367 8.19043 1.12891 7.65332C0.494141 7.06738 0.176758 6.31055 0.176758 5.38281C0.176758 4.45508 0.494141 3.72266 1.12891 3.18555C1.76367 2.59961 2.81348 2.30664 4.27832 2.30664H37.3838C42.5596 2.30664 47.2715 3.38086 51.5195 5.5293C55.8164 7.67773 59.0879 10.1191 61.334 12.8535C65.1914 17.4922 68.1211 22.3994 70.123 27.5752C71.5391 31.335 72.2471 35.7783 72.2471 40.9053V49.4014C72.2471 55.7002 70.8555 61.8037 68.0723 67.7119C65.2891 73.6201 60.6504 78.7715 54.1562 83.166C49.3223 86.3887 43.7314 88 37.3838 88H4.27832C2.81348 88 1.76367 87.707 1.12891 87.1211C0.494141 86.5352 0.176758 85.8027 0.176758 84.9238C0.176758 83.9961 0.494141 83.2637 1.12891 82.7266C1.76367 82.1406 2.81348 81.8477 4.27832 81.8477H9.47852ZM15.6309 81.8477H37.9697C43.1455 81.8477 47.9795 80.1631 52.4717 76.7939C57.0127 73.4248 60.4062 69.3965 62.6523 64.709C64.9473 59.9727 66.0947 55.3096 66.0947 50.7197V39.5869C66.0947 35.7783 65.4844 32.3848 64.2637 29.4062C62.5059 25.0605 60.0156 20.9346 56.793 17.0283C55.0352 14.8799 52.4473 12.9268 49.0293 11.1689C45.6113 9.3623 41.9248 8.45898 37.9697 8.45898H15.6309V81.8477ZM103.668 46.6182V81.8477H150.982V63.6836C150.982 62.2188 151.251 61.1689 151.788 60.5342C152.374 59.8994 153.131 59.582 154.059 59.582C154.986 59.582 155.719 59.8994 156.256 60.5342C156.842 61.1689 157.135 62.2188 157.135 63.6836V88H89.2393C87.7744 88 86.7246 87.707 86.0898 87.1211C85.4551 86.5352 85.1377 85.8027 85.1377 84.9238C85.1377 83.9961 85.4551 83.2637 86.0898 82.7266C86.7246 82.1406 87.7744 81.8477 89.2393 81.8477H97.5156V8.45898H89.2393C87.7744 8.45898 86.7246 8.19043 86.0898 7.65332C85.4551 7.06738 85.1377 6.31055 85.1377 5.38281C85.1377 4.45508 85.4551 3.72266 86.0898 3.18555C86.7246 2.59961 87.7744 2.30664 89.2393 2.30664H153.912V23.4736C153.912 24.9385 153.619 25.9883 153.033 26.623C152.496 27.2578 151.764 27.5752 150.836 27.5752C149.908 27.5752 149.151 27.2578 148.565 26.623C148.028 25.9883 147.76 24.9385 147.76 23.4736V8.45898H103.668V40.4658H125.714V33.5078C125.714 32.043 126.007 30.9932 126.593 30.3584C127.179 29.7236 127.936 29.4062 128.863 29.4062C129.742 29.4062 130.475 29.7236 131.061 30.3584C131.646 30.9932 131.939 32.043 131.939 33.5078V53.5762C131.939 55.041 131.646 56.0908 131.061 56.7256C130.475 57.3604 129.742 57.6777 128.863 57.6777C127.936 57.6777 127.179 57.3604 126.593 56.7256C126.007 56.0908 125.714 55.041 125.714 53.5762V46.6182H103.668ZM218.365 88H209.796L178.814 8.45898H174.054C172.931 8.45898 172.125 8.36133 171.637 8.16602C171.148 7.92188 170.733 7.55566 170.392 7.06738C170.099 6.53027 169.952 5.96875 169.952 5.38281C169.952 4.79688 170.099 4.25977 170.392 3.77148C170.733 3.23438 171.148 2.86816 171.637 2.67285C172.125 2.42871 172.931 2.30664 174.054 2.30664H196.979C198.15 2.30664 198.956 2.42871 199.396 2.67285C199.884 2.86816 200.274 3.23438 200.567 3.77148C200.909 4.25977 201.08 4.79688 201.08 5.38281C201.08 5.96875 200.909 6.53027 200.567 7.06738C200.226 7.55566 199.811 7.92188 199.322 8.16602C198.883 8.36133 198.102 8.45898 196.979 8.45898H185.187L213.751 81.8477H214.19L242.389 8.45898H230.67C229.498 8.45898 228.668 8.36133 228.18 8.16602C227.691 7.92188 227.276 7.55566 226.935 7.06738C226.642 6.53027 226.495 5.96875 226.495 5.38281C226.495 4.79688 226.666 4.25977 227.008 3.77148C227.35 3.23438 227.74 2.86816 228.18 2.67285C228.668 2.42871 229.498 2.30664 230.67 2.30664H253.521C254.693 2.30664 255.523 2.42871 256.012 2.67285C256.5 2.86816 256.891 3.23438 257.184 3.77148C257.525 4.25977 257.696 4.79688 257.696 5.38281C257.696 5.96875 257.525 6.53027 257.184 7.06738C256.842 7.55566 256.427 7.92188 255.938 8.16602C255.499 8.36133 254.693 8.45898 253.521 8.45898H248.834L218.365 88ZM283.844 46.6182V81.8477H331.158V63.6836C331.158 62.2188 331.427 61.1689 331.964 60.5342C332.55 59.8994 333.307 59.582 334.234 59.582C335.162 59.582 335.895 59.8994 336.432 60.5342C337.018 61.1689 337.311 62.2188 337.311 63.6836V88H269.415C267.95 88 266.9 87.707 266.266 87.1211C265.631 86.5352 265.313 85.8027 265.313 84.9238C265.313 83.9961 265.631 83.2637 266.266 82.7266C266.9 82.1406 267.95 81.8477 269.415 81.8477H277.691V8.45898H269.415C267.95 8.45898 266.9 8.19043 266.266 7.65332C265.631 7.06738 265.313 6.31055 265.313 5.38281C265.313 4.45508 265.631 3.72266 266.266 3.18555C266.9 2.59961 267.95 2.30664 269.415 2.30664H334.088V23.4736C334.088 24.9385 333.795 25.9883 333.209 26.623C332.672 27.2578 331.939 27.5752 331.012 27.5752C330.084 27.5752 329.327 27.2578 328.741 26.623C328.204 25.9883 327.936 24.9385 327.936 23.4736V8.45898H283.844V40.4658H305.89V33.5078C305.89 32.043 306.183 30.9932 306.769 30.3584C307.354 29.7236 308.111 29.4062 309.039 29.4062C309.918 29.4062 310.65 29.7236 311.236 30.3584C311.822 30.9932 312.115 32.043 312.115 33.5078V53.5762C312.115 55.041 311.822 56.0908 311.236 56.7256C310.65 57.3604 309.918 57.6777 309.039 57.6777C308.111 57.6777 307.354 57.3604 306.769 56.7256C306.183 56.0908 305.89 55.041 305.89 53.5762V46.6182H283.844ZM383.307 8.45898V81.8477H424.176V57.3848C424.176 55.9199 424.469 54.8701 425.055 54.2354C425.641 53.6006 426.397 53.2832 427.325 53.2832C428.204 53.2832 428.937 53.6006 429.522 54.2354C430.108 54.8213 430.401 55.8711 430.401 57.3848V88H362.433C360.968 88 359.918 87.707 359.283 87.1211C358.648 86.5352 358.331 85.8027 358.331 84.9238C358.331 83.9961 358.648 83.2637 359.283 82.7266C359.918 82.1406 360.968 81.8477 362.433 81.8477H377.081V8.45898H362.433C360.968 8.45898 359.918 8.19043 359.283 7.65332C358.648 7.06738 358.331 6.31055 358.331 5.38281C358.331 4.45508 358.648 3.72266 359.283 3.18555C359.918 2.59961 360.968 2.30664 362.433 2.30664H397.955C399.42 2.30664 400.47 2.59961 401.104 3.18555C401.739 3.72266 402.057 4.45508 402.057 5.38281C402.057 6.31055 401.739 7.06738 401.104 7.65332C400.47 8.19043 399.42 8.45898 397.955 8.45898H383.307ZM521.661 45.373C521.661 53.5762 520.001 61.1934 516.681 68.2246C513.36 75.207 508.771 80.6514 502.911 84.5576C497.101 88.4639 490.851 90.417 484.161 90.417C474.249 90.417 465.509 86.2178 457.94 77.8193C450.421 69.3721 446.661 58.5566 446.661 45.373C446.661 32.1406 450.421 21.3252 457.94 12.9268C465.509 4.52832 474.249 0.329102 484.161 0.329102C490.851 0.329102 497.101 2.28223 502.911 6.18848C508.722 10.0947 513.287 15.5391 516.607 22.5215C519.977 29.5039 521.661 37.1211 521.661 45.373ZM515.436 45.373C515.436 35.3633 512.53 26.3789 506.72 18.4199C500.909 10.4609 493.39 6.48145 484.161 6.48145C475.519 6.48145 468.121 10.29 461.969 17.9072C455.865 25.4756 452.813 34.6309 452.813 45.373C452.813 56.7988 456.012 66.1494 462.408 73.4248C468.854 80.6514 476.104 84.2646 484.161 84.2646C493.39 84.2646 500.909 80.3096 506.72 72.3994C512.53 64.4404 515.436 55.4316 515.436 45.373ZM560.772 52.8438V81.8477H581.866C583.331 81.8477 584.381 82.1406 585.016 82.7266C585.65 83.2637 585.968 83.9961 585.968 84.9238C585.968 85.8027 585.65 86.5352 585.016 87.1211C584.381 87.707 583.331 88 581.866 88H546.344C544.879 88 543.829 87.707 543.194 87.1211C542.56 86.5352 542.242 85.8027 542.242 84.9238C542.242 83.9961 542.56 83.2637 543.194 82.7266C543.829 82.1406 544.879 81.8477 546.344 81.8477H554.62V8.45898H546.344C544.879 8.45898 543.829 8.19043 543.194 7.65332C542.56 7.06738 542.242 6.31055 542.242 5.38281C542.242 4.45508 542.56 3.72266 543.194 3.18555C543.829 2.59961 544.879 2.30664 546.344 2.30664H582.086C590.533 2.30664 597.418 4.79688 602.74 9.77734C608.111 14.7578 610.797 20.5928 610.797 27.2822C610.797 31.2373 609.918 34.8018 608.16 37.9756C606.451 41.1494 604.376 43.6396 601.935 45.4463C598.272 48.1807 594.488 50.1826 590.582 51.4521C587.75 52.3799 584.234 52.8438 580.035 52.8438H560.772ZM560.772 46.6914H580.401C584.942 46.6914 589.19 45.6904 593.146 43.6885C597.149 41.6377 600.055 39.1475 601.861 36.2178C603.717 33.2881 604.645 30.3096 604.645 27.2822C604.645 22.4482 602.569 18.1025 598.419 14.2451C594.269 10.3877 589.02 8.45898 582.672 8.45898H560.772V46.6914ZM644.195 46.6182V81.8477H691.51V63.6836C691.51 62.2188 691.778 61.1689 692.315 60.5342C692.901 59.8994 693.658 59.582 694.586 59.582C695.514 59.582 696.246 59.8994 696.783 60.5342C697.369 61.1689 697.662 62.2188 697.662 63.6836V88H629.767C628.302 88 627.252 87.707 626.617 87.1211C625.982 86.5352 625.665 85.8027 625.665 84.9238C625.665 83.9961 625.982 83.2637 626.617 82.7266C627.252 82.1406 628.302 81.8477 629.767 81.8477H638.043V8.45898H629.767C628.302 8.45898 627.252 8.19043 626.617 7.65332C625.982 7.06738 625.665 6.31055 625.665 5.38281C625.665 4.45508 625.982 3.72266 626.617 3.18555C627.252 2.59961 628.302 2.30664 629.767 2.30664H694.439V23.4736C694.439 24.9385 694.146 25.9883 693.561 26.623C693.023 27.2578 692.291 27.5752 691.363 27.5752C690.436 27.5752 689.679 27.2578 689.093 26.623C688.556 25.9883 688.287 24.9385 688.287 23.4736V8.45898H644.195V40.4658H666.241V33.5078C666.241 32.043 666.534 30.9932 667.12 30.3584C667.706 29.7236 668.463 29.4062 669.391 29.4062C670.27 29.4062 671.002 29.7236 671.588 30.3584C672.174 30.9932 672.467 32.043 672.467 33.5078V53.5762C672.467 55.041 672.174 56.0908 671.588 56.7256C671.002 57.3604 670.27 57.6777 669.391 57.6777C668.463 57.6777 667.706 57.3604 667.12 56.7256C666.534 56.0908 666.241 55.041 666.241 53.5762V46.6182H644.195ZM734.283 49.7676V81.8477H745.636C747.149 81.8477 748.224 82.1406 748.858 82.7266C749.493 83.2637 749.811 83.9961 749.811 84.9238C749.811 85.8027 749.493 86.5352 748.858 87.1211C748.224 87.707 747.149 88 745.636 88H719.854C718.39 88 717.34 87.707 716.705 87.1211C716.07 86.5352 715.753 85.8027 715.753 84.9238C715.753 83.9961 716.07 83.2637 716.705 82.7266C717.34 82.1406 718.39 81.8477 719.854 81.8477H728.131V8.45898H719.854C718.39 8.45898 717.34 8.19043 716.705 7.65332C716.07 7.06738 715.753 6.31055 715.753 5.38281C715.753 4.45508 716.07 3.72266 716.705 3.18555C717.34 2.59961 718.39 2.30664 719.854 2.30664H757.062C764.728 2.30664 771.173 4.74805 776.397 9.63086C781.671 14.4648 784.308 19.9336 784.308 26.0371C784.308 30.4316 782.672 34.582 779.4 38.4883C776.178 42.3457 770.758 45.5684 763.141 48.1562C767.535 51.1836 771.295 54.6016 774.42 58.4102C777.545 62.2188 782.55 70.0312 789.435 81.8477H794.122C795.587 81.8477 796.637 82.1406 797.271 82.7266C797.906 83.2637 798.224 83.9961 798.224 84.9238C798.224 85.8027 797.906 86.5352 797.271 87.1211C796.637 87.707 795.587 88 794.122 88H785.919C778.302 74.377 772.394 65.2461 768.194 60.6074C764.044 55.9688 759.259 52.3555 753.839 49.7676H734.283ZM734.283 43.6152H751.056C756.427 43.6152 761.285 42.6387 765.631 40.6855C770.025 38.7324 773.199 36.4375 775.152 33.8008C777.154 31.1641 778.155 28.4785 778.155 25.7441C778.155 21.6426 776.08 17.7363 771.93 14.0254C767.828 10.3145 762.823 8.45898 756.915 8.45898H734.283V43.6152Z" fill="white"/>
</svg>
