<svg width="22" height="21" viewBox="0 0 22 21" fill="none" xmlns="http://www.w3.org/2000/svg">
<path fill-rule="evenodd" clip-rule="evenodd" d="M4.77475 2.28389C4.77475 3.52898 3.82672 4.5366 2.34415 4.5366C0.919355 4.5366 -0.0286772 3.52898 0.000662254 2.28389C-0.0286772 0.978283 0.919332 0 2.37255 0C3.82669 0 4.74633 0.978283 4.77475 2.28389ZM0.119858 20.8191V6.31621H4.62712V20.8181H0.119858V20.8191Z" fill="white"/>
<path fill-rule="evenodd" clip-rule="evenodd" d="M8.23931 10.9446C8.23931 9.13566 8.17971 7.5935 8.12012 6.31816H12.0351L12.2432 8.30499H12.3322C12.9254 7.38538 14.4079 5.99268 16.8101 5.99268C19.7752 5.99268 21.9995 7.95016 21.9995 12.219V20.821H17.4922V12.7838C17.4922 10.9144 16.8404 9.63993 15.2093 9.63993C13.9633 9.63993 13.2224 10.4999 12.9263 11.3297C12.8071 11.6268 12.7484 12.0412 12.7484 12.4574V20.821H8.24113V10.9446H8.23931Z" fill="white"/>
</svg>
