<svg width="1280" height="211" viewBox="0 0 1280 211" fill="none" xmlns="http://www.w3.org/2000/svg">
<g filter="url(#filter0_d)">
<path d="M708 49V129H742.5V49H776.5V129V187.5H1279" stroke="#2D4059" stroke-width="21" stroke-linecap="square"/>
<path d="M679 49H617V131.951H648.544V95.1639H679V187.5H10.5" stroke="#2D4059" stroke-width="21" stroke-linecap="square"/>
<path fill-rule="evenodd" clip-rule="evenodd" d="M228 42L303 91.255C278 110.658 228 149.167 228 147.973V121.986C228 122.594 254 102.977 267 93.0922L228 68V42Z" fill="#2D4059"/>
<rect x="198.1" y="42.2874" width="22.5073" height="105.425" transform="rotate(0.0720383 198.1 42.2874)" fill="#2D4059"/>
<path d="M209 18L214.629 27.75L220.258 37.5H209H197.742L203.371 27.75L209 18Z" fill="#2D4059"/>
<rect x="899.318" y="36.962" width="104.357" height="104.357" transform="rotate(89.7485 899.318 36.962)" fill="#2D4059"/>
<rect x="888.029" y="48.3512" width="81.6781" height="81.6781" transform="rotate(89.7485 888.029 48.3512)" fill="white"/>
<rect x="806" y="83.0001" width="67" height="11" fill="#2D4059"/>
<rect x="419.318" y="36.962" width="104.357" height="104.357" transform="rotate(89.7485 419.318 36.962)" fill="#2D4059"/>
<rect x="408.029" y="48.3512" width="81.6781" height="81.6781" transform="rotate(89.7485 408.029 48.3512)" fill="white"/>
<rect x="326" y="83.0001" width="67" height="11" fill="#2D4059"/>
<path d="M527 48H459V91.5H524V137H459" stroke="#2D4059" stroke-width="26" stroke-linecap="square"/>
<path d="M569.5 36.5V149" stroke="#2D4059" stroke-width="26" stroke-linecap="square"/>
<path d="M938 130.5V82.5M938 82.5V43H994V82.5H966M938 82.5H966M966 82.5V110.5H994V182" stroke="#2D4059" stroke-width="21" stroke-linecap="square"/>
</g>
<defs>
<filter id="filter0_d" x="-10" y="11" width="1309.5" height="200" filterUnits="userSpaceOnUse" color-interpolation-filters="sRGB">
<feFlood flood-opacity="0" result="BackgroundImageFix"/>
<feColorMatrix in="SourceAlpha" type="matrix" values="0 0 0 0 0 0 0 0 0 0 0 0 0 0 0 0 0 0 127 0" result="hardAlpha"/>
<feOffset dy="3"/>
<feGaussianBlur stdDeviation="5"/>
<feComposite in2="hardAlpha" operator="out"/>
<feColorMatrix type="matrix" values="0 0 0 0 0 0 0 0 0 0 0 0 0 0 0 0 0 0 0.25 0"/>
<feBlend mode="normal" in2="BackgroundImageFix" result="effect1_dropShadow"/>
<feBlend mode="normal" in="SourceGraphic" in2="effect1_dropShadow" result="shape"/>
</filter>
</defs>
</svg>
